<?xml version='1.0' encoding='iso-8859-1'?>
<svg fill="#000000" height="800px" width="800px" version="1.1" xmlns="http://www.w3.org/2000/svg" viewBox="0 0 297 297"
  xmlns:xlink="http://www.w3.org/1999/xlink" enable-background="new 0 0 297 297">
  <g>
    <path
      d="M222.476,16c-24.412,0-44.674,17.721-48.652,41H122.64l-7.393-50.166C114.669,2.908,111.302,0,107.333,0H25.144v16h75.283   l6.041,41H51.185l80.959,121.204V280h-25v17h66v-17h-25V178.201l47.605-71.335c7.709,4.98,16.876,7.883,26.738,7.883   c27.269,0,49.37-22.105,49.37-49.374C271.856,38.104,249.745,16,222.476,16z M199.099,73l-11.35,17h-60.246l-2.506-17H199.099z    M108.825,73l2.506,17H92.454l-11.35-17H108.825z M222.476,98.749c-6.564,0-12.689-1.913-17.857-5.2L229.019,57h-38.854   c3.727-14.363,16.799-25,32.311-25c18.404,0,33.375,14.972,33.375,33.375C255.851,83.777,240.88,98.749,222.476,98.749z" />
  </g>
</svg>